<svg width="509" height="509" viewBox="0 0 509 509" fill="none" xmlns="http://www.w3.org/2000/svg">
<path d="M181.818 164L129.48 345.999H90.7027L39 164H75.8705L107.549 290.664C109.244 297.517 110.267 303.568 110.621 308.813H111.257C111.751 303.146 112.846 296.926 114.541 290.156L146.008 164.001H181.818V164ZM234.263 283.303V346H200.042V164H253.652C291.933 164 311.076 183.335 311.076 222.001C311.076 240.277 305.583 255.063 294.601 266.359C283.617 277.655 268.943 283.303 250.579 283.303H234.263V283.303ZM234.263 195.476V252.208H247.718C265.941 252.208 275.053 242.648 275.053 223.525C275.053 204.826 265.941 195.476 247.718 195.476H234.263ZM470 346H435.46L372.845 231.648C369.171 224.964 366.629 219.93 365.216 216.544H364.792C365.357 222.975 365.64 232.79 365.64 245.989V346H333.325V164H370.195L430.48 274.798C433.159 279.645 435.704 284.598 438.109 289.648H438.532C437.966 285.418 437.685 277.084 437.685 264.645V164H470V346Z" fill="white"/>
</svg>
